<?xml version="1.0" standalone="no"?>
<!DOCTYPE svg PUBLIC "-//W3C//DTD SVG 1.1//EN" "http://www.w3.org/Graphics/SVG/1.1/DTD/svg11.dtd" >
<svg xmlns="http://www.w3.org/2000/svg" xmlns:xlink="http://www.w3.org/1999/xlink" version="1.1">
<metadata></metadata>
<defs>
<font id="canela_condensed_trialbold" horiz-adv-x="372" >
<font-face units-per-em="2048" ascent="1587" descent="-461" />
<missing-glyph horiz-adv-x="235" />
<glyph horiz-adv-x="0" />
<glyph horiz-adv-x="682" />
<glyph unicode=" "  horiz-adv-x="235" />
<glyph unicode="&#x09;" horiz-adv-x="235" />
<glyph unicode="&#xa0;" horiz-adv-x="235" />
<glyph unicode="!" horiz-adv-x="364" d="M35 1495v4h295v-4l-135 -1069h-25zM39 133q0 59 41.5 100t101.5 41q59 0 101.5 -41.5t42.5 -99.5t-42.5 -100.5t-101.5 -42.5q-60 0 -101.5 42t-41.5 101z" />
<glyph unicode="&#x22;" horiz-adv-x="552" d="M23 1499h239l-112 -459h-13zM291 1499h239l-112 -459h-12z" />
<glyph unicode="'" horiz-adv-x="284" d="M23 1499h239l-112 -459h-13z" />
<glyph unicode="," horiz-adv-x="368" d="M20 -242q52 42 83.5 96.5t31.5 98.5q0 42 -29.5 96t-68.5 98v7l186 139q36 -28 66 -81t30 -106q0 -97 -88 -202.5t-204 -159.5z" />
<glyph unicode="-" d="M27 500v190h317v-190h-317z" />
<glyph unicode="." horiz-adv-x="368" d="M45 129q0 57 41 97t98 40t98.5 -40t41.5 -97t-41.5 -98t-98.5 -41t-98 41t-41 98z" />
<glyph unicode="0" horiz-adv-x="1021" d="M41 750q0 146 27.5 273.5t73.5 218.5t105.5 157t125 98.5t131.5 32.5t133 -32.5t129 -98.5t110 -157t76.5 -219t28.5 -273t-29 -273t-77 -219.5t-110 -157.5t-129 -98.5t-132 -32.5t-130.5 32.5t-125.5 98.5t-106 157.5t-73.5 219t-27.5 273.5zM344 750q0 -409 32 -576.5 t128 -167.5q99 0 136.5 172t37.5 572q0 399 -37.5 571t-136.5 172q-96 0 -128 -167t-32 -576z" />
<glyph unicode="1" horiz-adv-x="600" d="M57 1237v10q119 40 222.5 114.5t162.5 178.5h17v-1253q0 -100 12 -155.5t51 -127.5v-4h-416v4q39 75 52.5 131.5t13.5 151.5v950h-115z" />
<glyph unicode="2" horiz-adv-x="839" d="M14 0v20q248 363 349.5 619.5t101.5 511.5q0 155 -30.5 248.5t-86.5 93.5q-18 0 -36.5 -10t-40 -34.5t-39.5 -48t-45.5 -69.5t-46.5 -80t-54 -96l-12 4l28 328q110 43 242 43q197 0 303.5 -113t106.5 -291q0 -105 -36.5 -210t-111.5 -215t-171.5 -217t-233.5 -236h266 q107 0 178.5 50.5t120.5 145.5l12 -4l-96 -440h-668z" />
<glyph unicode="3" horiz-adv-x="851" d="M41 365l14 4q94 -182 162.5 -272.5t130.5 -90.5q71 0 119.5 119t48.5 319q0 394 -192 394q-76 0 -166 -74l-17 16l408 471h-451l76 248h619v-20l-537 -621q60 29 143 29q76 0 147 -27t129.5 -78.5t94 -135t35.5 -187.5q0 -213 -135 -351.5t-332 -138.5q-71 0 -146.5 17.5 t-123.5 44.5z" />
<glyph unicode="4" horiz-adv-x="890" d="M6 389v21l465 1089h336l-768 -1075h387v401h287v-401h139l-6 -35h-133v-102q0 -99 10.5 -154.5t44.5 -128.5v-4h-401v4q35 74 47 130.5t12 152.5v102h-420z" />
<glyph unicode="5" horiz-adv-x="788" d="M29 350l12 4q58 -105 99 -171.5t91 -121.5t86 -55q60 0 102 125t42 330t-49 304t-160 99q-82 0 -148 -61l-16 8l82 688h555l-33 -248h-516l-47 -391q84 64 211 64q60 0 117 -16.5t109 -53t91 -88.5t62.5 -129t23.5 -170q0 -123 -39 -221t-103.5 -157t-140 -89.5 t-155.5 -30.5q-148 0 -248 62z" />
<glyph unicode="6" horiz-adv-x="935" d="M45 582q0 85 15.5 171.5t48 179.5t89.5 180t133.5 165t187 143.5t243.5 108.5l8 -19q-332 -157 -410 -657q26 61 77.5 101t125.5 40q139 0 238.5 -126.5t99.5 -340.5q0 -159 -56.5 -287.5t-153.5 -200t-214 -71.5q-90 0 -169.5 46.5t-137.5 127.5t-91.5 195t-33.5 244z M338 543q0 -537 141 -537q73 0 101 112t28 345q0 226 -32.5 320t-104.5 94q-78 0 -119 -78q-14 -126 -14 -256z" />
<glyph unicode="7" horiz-adv-x="794" d="M43 1251l41 248h690v-20q-139 -351 -232 -705.5t-136 -773.5h-302q125 561 564 1251h-625z" />
<glyph unicode="8" horiz-adv-x="874" d="M41 322q0 248 256 376q-49 49 -81.5 88t-65.5 92t-49.5 115t-16.5 133q0 178 102 291t260 113q143 0 242.5 -93.5t99.5 -232.5q0 -98 -56 -184t-179 -135q3 -2 8 -7.5t8 -7.5q48 -45 80 -77.5t70.5 -81t61 -93.5t38 -103.5t15.5 -121.5q0 -189 -117.5 -306.5 t-300.5 -117.5q-164 0 -269.5 97t-105.5 256zM201 332q0 -92 21 -162.5t71.5 -116t126.5 -45.5q92 0 151.5 59.5t59.5 161.5q0 33 -7.5 65t-18 58t-31.5 57.5t-37.5 52t-47 52.5t-49 49.5t-55 51.5t-53.5 51q-3 3 -10.5 9t-10.5 9q-110 -143 -110 -352zM268 1294 q0 -31 7.5 -62t17.5 -55t31.5 -55t36.5 -49.5t47 -51t47.5 -47t53.5 -49.5q17 -16 26 -24q100 118 100 303q0 129 -48 209t-145 80q-79 0 -126.5 -55t-47.5 -144z" />
<glyph unicode="9" horiz-adv-x="935" d="M35 971q0 159 56.5 287.5t153.5 200t214 71.5q120 0 218.5 -79t156 -219.5t57.5 -313.5q0 -103 -21 -207t-74 -217t-132 -209t-205.5 -180.5t-284.5 -135.5l-8 19q331 157 409 657q-26 -62 -77 -101.5t-125 -39.5q-139 0 -238.5 126.5t-99.5 340.5zM328 1036 q0 -226 32.5 -319.5t104.5 -93.5q78 0 119 77q14 126 14 256q0 537 -141 537q-73 0 -101 -112t-28 -345z" />
<glyph unicode="?" horiz-adv-x="624" d="M41 1227l27 254q83 49 211 49q149 0 240 -83t91 -243q0 -72 -20 -134t-53 -110t-73.5 -92.5t-84 -91t-81 -95t-68 -114.5t-42.5 -141h-20q3 92 21.5 171.5t43 139t48 119.5t39.5 141t16 177q0 143 -30 231t-66 88q-14 0 -29.5 -13.5t-36 -45t-35.5 -56.5t-44 -77t-44 -78 zM57 133q0 58 42.5 99.5t101.5 41.5q60 0 102.5 -41.5t42.5 -99.5q0 -59 -42.5 -101t-102.5 -42q-59 0 -101.5 42.5t-42.5 100.5z" />
<glyph unicode="A" horiz-adv-x="937" d="M14 0v4q84 130 140 377l247 1122h136l251 -1128q49 -210 138 -371v-4h-490v4q35 71 45 170q3 31 3 65q0 74 -15 162l-25 119h-217l-22 -102q-19 -83 -19 -154v-22q4 -80 23.5 -138t54.5 -100v-4h-250zM236 557h200l-96 467z" />
<glyph unicode="B" horiz-adv-x="962" d="M61 0v4q22 95 30 135t16 119t8 176v631q0 97 -8 176t-16 119t-30 135v4q13 0 204 1t196 1q208 0 319 -90t111 -250q0 -58 -14 -109t-44 -100t-85.5 -87.5t-131.5 -61.5q316 -89 316 -387q0 -189 -117.5 -302.5t-335.5 -113.5h-418zM408 39h43q96 3 138 103t42 296 q0 175 -38 257.5t-132 82.5h-53v-739zM408 815h55q79 0 115 79t36 263q0 59 -3.5 101.5t-13.5 82.5t-27.5 64.5t-46.5 40t-70 16.5q-2 0 -22.5 1t-22.5 1v-649z" />
<glyph unicode="C" horiz-adv-x="940" d="M47 748q0 236 62.5 411.5t185.5 273t293 97.5q121 0 272 -47l21 -320l-19 -6q-100 184 -167 260t-130 76q-42 0 -74.5 -24.5t-55 -73.5t-37.5 -112.5t-23 -151t-11.5 -178t-3.5 -205.5q0 -217 23.5 -382.5t71 -262.5t114.5 -97q25 0 48.5 12.5t48.5 42t45.5 61t49 88.5 t50.5 103.5t57 126.5l17 -4l-19 -364q-17 -13 -42 -28t-65 -33t-92 -30t-104 -12q-151 0 -268.5 96.5t-182.5 274t-65 408.5z" />
<glyph unicode="D" horiz-adv-x="1083" d="M61 0v4q20 89 29 136t16 124.5t7 175.5v619q0 98 -7 175.5t-16 124.5t-29 136v4q50 0 184 4t228 4q117 0 218.5 -50t178.5 -143t121.5 -237t44.5 -321q0 -178 -42.5 -322t-118 -238.5t-178.5 -145t-224 -50.5h-412zM406 41q32 -4 55 -4q78 0 130.5 45t81 138.5t39.5 213 t11 293.5q0 386 -59.5 564.5t-204.5 178.5q-25 0 -53 -4v-1425z" />
<glyph unicode="E" horiz-adv-x="919" d="M61 0v4q30 123 41 205.5t11 226.5v627q0 144 -11 226.5t-41 205.5v4h721l37 -321l-16 -7q-13 19 -43.5 62t-43 59.5t-36.5 48t-38.5 45t-34.5 31t-38.5 25t-38.5 10.5l-124 10v-661h65q70 0 184 178h19v-418h-19q-4 6 -19.5 32.5t-24 39t-24.5 37t-28 37.5t-28 28t-31 22 t-29 7h-65v-725l153 8q44 3 97.5 61t98.5 134t105 192l14 -6l-57 -428h-756z" />
<glyph unicode="F" horiz-adv-x="849" d="M61 0v4q20 89 29 133.5t16 121.5t7 175v631q0 98 -7 175t-16 121.5t-29 133.5v4h723l37 -321l-14 -7q-17 23 -44.5 62t-42 59t-37.5 49t-38 44t-35 31.5t-39 24.5t-39 11l-126 12v-671h71q23 0 49.5 17t53 48t44.5 55t40 58h16v-416h-16q-5 8 -20.5 32.5t-24.5 38.5 t-25 37t-28.5 36.5t-28 28t-31 21.5t-29.5 7h-71v-326q0 -136 11.5 -220.5t41.5 -205.5v-4h-398z" />
<glyph unicode="G" horiz-adv-x="1028" d="M47 748q0 355 147.5 568.5t395.5 213.5q121 0 272 -47l23 -320l-21 -6q-99 185 -165 260.5t-132 75.5q-59 0 -100.5 -54t-64 -157.5t-32.5 -232.5t-10 -299q0 -338 46.5 -541t136.5 -203q61 0 100.5 75t42.5 222v14q0 70 -9 131q-10 66 -20.5 101t-33.5 98v4h358v-4 q-29 -94 -40 -162.5t-11 -177.5v-170q-16 -18 -51.5 -43.5t-88 -54.5t-123.5 -49.5t-139 -20.5q-96 0 -184 56.5t-153.5 156.5t-104.5 247.5t-39 318.5z" />
<glyph unicode="H" horiz-adv-x="1120" d="M61 0v4q20 89 29 133.5t16 121.5t7 175v631q0 98 -7 175t-16 121.5t-29 133.5v4h398v-4q-20 -88 -29 -134.5t-16.5 -122.5t-7.5 -169v-278h307v274q0 141 -11.5 223t-42.5 207v4h402v-4q-20 -88 -29 -134.5t-16.5 -122.5t-7.5 -169v-639q0 -93 7.5 -169t16.5 -122.5 t29 -134.5v-4h-402v4q31 125 42.5 207t11.5 223v320h-307v-324q0 -93 7.5 -169t16.5 -122.5t29 -134.5v-4h-398z" />
<glyph unicode="I" horiz-adv-x="518" d="M61 0v4q20 89 29 133.5t16 120.5t7 172v635q0 98 -7 175t-16 121.5t-29 133.5v4h398v-4q-20 -88 -29 -134.5t-16.5 -122.5t-7.5 -169v-639q0 -93 7.5 -169t16.5 -122.5t29 -134.5v-4h-398z" />
<glyph unicode="J" horiz-adv-x="722" d="M37 381l18 4q153 -379 207 -379q15 0 30 39t25.5 119.5t10.5 183.5v717q0 141 -11.5 223t-42.5 207v4h398v-4q-29 -117 -40 -202.5t-11 -223.5v-584q0 -241 -108 -378.5t-282 -137.5q-82 0 -168 33z" />
<glyph unicode="K" horiz-adv-x="1073" d="M61 0v4q20 89 29 133.5t16 120.5t7 172v635q0 98 -7 175t-16 121.5t-29 133.5v4h398v-4q-28 -123 -39.5 -207t-11.5 -219v-639q0 -135 11.5 -219t39.5 -207v-4h-398zM414 739l252 389q61 94 69 180q1 12 1 24q0 76 -42 163v4h357v-4q-96 -62 -171 -143t-155 -203 l-76 -127l246 -649q58 -158 97 -241t81 -128v-4h-379z" />
<glyph unicode="L" horiz-adv-x="835" d="M61 0v4q21 92 29.5 136.5t15.5 122.5t7 177v619q0 99 -7 177t-15.5 122.5t-29.5 136.5v4h398v-4q-30 -124 -41.5 -210.5t-11.5 -223.5v-1018l86 4q35 2 73 31t77.5 84.5t74 114.5t78.5 143l12 -6l-55 -414h-691z" />
<glyph unicode="M" horiz-adv-x="1169" d="M41 0v4q28 89 40 132t22 119t10 171v692q0 127 -15 206t-55 171v4h311l236 -895l231 895h303v-4q-38 -92 -52.5 -171t-14.5 -206v-688q0 -137 11 -222t38 -204v-4h-395v4q29 119 40 202t11 224v686l-281 -1071h-49l-280 1069l2 -688q0 -135 25.5 -218.5t90.5 -203.5v-4 h-229z" />
<glyph unicode="N" horiz-adv-x="950" d="M41 0v4q41 122 56.5 203t15.5 217v706q0 122 -15 197t-55 168v4h283l471 -860v436q0 71 -8 125.5t-29 106.5t-41 88t-60 100v4h248v-4q-39 -117 -54 -199.5t-15 -220.5v-1073l-31 -8l-655 1186l2 -756q0 -134 30 -217t107 -203v-4h-250z" />
<glyph unicode="O" horiz-adv-x="1101" d="M47 748q0 230 69.5 410.5t183.5 276t249 95.5q136 0 251 -95.5t185 -276t70 -410.5q0 -173 -41 -320.5t-110 -247t-161 -155.5t-194 -56q-101 0 -192.5 56t-160 155.5t-109 247t-40.5 320.5zM358 748q0 -170 9.5 -299.5t30.5 -232t59 -156.5t92 -54t92 53.5t59.5 156 t31 232.5t9.5 300q0 173 -8.5 301t-29.5 232.5t-59.5 158t-94.5 53.5q-55 0 -93.5 -54t-59.5 -158t-29.5 -232.5t-8.5 -300.5z" />
<glyph unicode="P" horiz-adv-x="933" d="M61 0v4q20 89 29 133.5t16 121.5t7 175v631q0 98 -7 175t-16 121.5t-29 133.5v4h400q214 0 331 -104t117 -299q0 -210 -127.5 -341.5t-351.5 -131.5h-24v-193q0 -145 11 -231t42 -195v-4h-398zM406 659h28q44 0 78.5 35.5t56 97t32.5 141.5t11 173q0 183 -43.5 269.5 t-132.5 86.5h-30v-803z" />
<glyph unicode="Q" horiz-adv-x="1101" d="M47 748q0 230 69.5 410.5t183.5 276t249 95.5q136 0 251 -95.5t185 -276t70 -410.5q0 -173 -41 -320.5t-110 -247t-161 -155.5t-194 -56h-2q65 -59 160 -83q67 -16 130 -16q27 0 54 3q89 10 160 45l-70 -244q-54 -26 -113 -26q-86 0 -156 31t-112.5 81t-67 104t-32.5 109 q-192 27 -322.5 239t-130.5 536zM358 748q0 -170 9.5 -299.5t30.5 -232t59 -156.5t92 -54t92 53.5t59.5 156t31 232.5t9.5 300q0 173 -8.5 301t-29.5 232.5t-59.5 158t-94.5 53.5q-55 0 -93.5 -54t-59.5 -158t-29.5 -232.5t-8.5 -300.5z" />
<glyph unicode="R" horiz-adv-x="1028" d="M61 0v4q20 89 29 133.5t16 121.5t7 175v631q0 98 -7 175t-16 121.5t-29 133.5v4h396q105 0 186.5 -21t132.5 -55.5t83.5 -84.5t45.5 -103t13 -115q0 -221 -160 -325l151 -541q22 -76 32.5 -107.5t31.5 -72t49 -70.5v-4h-365l-192 707h-59v-273q0 -138 11.5 -223.5 t41.5 -206.5v-4h-398zM406 743h47q47 0 79.5 25.5t50.5 76t25.5 115.5t7.5 156q0 185 -37.5 265.5t-138.5 80.5q-24 0 -34 -2v-717z" />
<glyph unicode="S" horiz-adv-x="796" d="M49 397l19 6q122 -203 208 -294t156 -91q55 0 91 48t36 129q0 28 -4 55t-15 54.5t-19 48t-29 49.5t-31 44t-38.5 46.5t-38.5 42.5t-44 46t-43 44q-54 57 -91 103t-75 109t-57 134.5t-19 150.5q0 195 109.5 298.5t288.5 103.5q109 0 200 -27l19 -305l-19 -6 q-107 171 -169.5 233t-125.5 62q-59 0 -96 -39.5t-37 -112.5q0 -49 17 -94t52.5 -89.5t68.5 -78t87.5 -85.5t86.5 -85q49 -52 84 -98.5t68.5 -107.5t51 -132.5t17.5 -150.5q0 -216 -112.5 -324.5t-295.5 -108.5q-74 0 -150.5 17t-119.5 41z" />
<glyph unicode="T" horiz-adv-x="956" d="M35 1106l41 393h805l43 -393l-17 -6q-100 191 -156 270t-110 82h-16v-1022q0 -93 7.5 -169t16.5 -122.5t29 -134.5v-4h-397v4q29 125 40 206.5t11 219.5v1022h-17q-54 -3 -110 -82t-156 -270z" />
<glyph unicode="U" horiz-adv-x="960" d="M57 1495v4h404v-4q-31 -122 -42 -203.5t-11 -222.5v-733q0 -309 194 -309q56 0 97 25.5t64.5 72t34.5 105.5t11 132v707q0 140 -32 224.5t-113 201.5v4h280v-4q-54 -120 -75 -204.5t-21 -223.5v-692q0 -74 -7.5 -130.5t-29.5 -110.5t-59 -88.5t-98.5 -55.5t-145.5 -21 q-183 0 -289 99t-106 290v707q0 98 -8 175.5t-17 120.5t-31 134z" />
<glyph unicode="V" horiz-adv-x="942" d="M14 1495v4h498v-4q-50 -66 -59 -179q-2 -27 -2 -54q0 -89 22 -189l129 -606l141 614q18 85 18 157q0 47 -8 89q-19 106 -77 168v4h254v-4q-33 -49 -71.5 -152.5t-65.5 -222.5l-256 -1124h-136l-254 1130q-26 115 -64 217.5t-69 151.5z" />
<glyph unicode="W" horiz-adv-x="1456" d="M16 1495v4h476v-4q-32 -63 -41 -139q-5 -43 -5 -81q0 -31 3 -57q7 -62 24 -143l117 -577l131 569l-12 63q-55 255 -115 365v4h455v-4q-29 -47 -43 -99q-12 -46 -12 -98v-12q2 -58 8.5 -102t19.5 -111l115 -565l120 575q19 95 19 171q0 160 -84 241v4h248v-4 q-82 -140 -133 -379l-238 -1120h-125l-203 979l-229 -979h-125l-237 1128q-48 222 -134 371z" />
<glyph unicode="X" horiz-adv-x="1013" d="M25 0v6q54 61 103.5 152.5t109.5 247.5l124 331l-129 367q-58 167 -98 251.5t-86 137.5v6h483v-6q-32 -47 -32 -125q0 -94 47 -231l88 -250l65 184q35 96 35 182q0 134 -86 242v4h318v-6q-57 -62 -107 -153t-108 -246l-99 -260l154 -439q59 -167 98.5 -252t85.5 -137v-6 h-483v6q33 50 33 128q0 94 -47 228l-113 324l-94 -258q-33 -93 -33 -177q0 -134 84 -247v-4h-313z" />
<glyph unicode="Y" horiz-adv-x="954" d="M14 1493v6h490v-6q-47 -74 -47 -167q0 -76 32 -165l117 -342l103 266q35 90 37 166v9q0 70 -23 123q-24 56 -72 110v6h289v-6q-20 -24 -37.5 -51t-29.5 -47.5t-28 -57.5t-24 -57.5t-27.5 -72.5t-29.5 -77l-152 -395l6 -317q0 -89 8 -164t16.5 -117t29.5 -133v-4h-398v4 q23 92 31.5 132t16.5 115t8 169v287l-148 440q-72 212 -168 346z" />
<glyph unicode="Z" horiz-adv-x="868" d="M35 0v14l483 1452l-94 -8q-49 -5 -90 -24.5t-84 -65.5t-66.5 -77t-74.5 -105q-15 -22 -23 -33l-14 6l49 340h706v-14l-481 -1452l125 10q164 15 348 385l15 -6l-58 -422h-741z" />
<glyph unicode="a" horiz-adv-x="806" d="M27 180q0 79 35 145t96 111.5t125.5 76t140.5 52.5v131q0 82 -34.5 122t-113.5 40q-53 0 -108.5 -17.5t-89.5 -41.5l-6 10q62 97 156 164t214 67q122 0 187 -73t65 -199v-537q0 -86 60 -86q27 0 49 19l6 -6q-55 -187 -205 -187q-70 0 -116 45t-58 121q-30 -72 -84 -120 t-129 -48q-79 0 -134.5 54t-55.5 157zM274 293q0 -73 25 -107t68 -34q37 0 57 20v356q-71 -28 -110.5 -89t-39.5 -146z" />
<glyph unicode="b" horiz-adv-x="892" d="M10 1489v2l346 104v-704h4q74 149 213 149q133 0 205 -120.5t72 -335.5q0 -127 -26.5 -236.5t-78 -195t-135 -134.5t-190.5 -49q-141 0 -240 88l-78 -57h-16v1188q0 105 -16 170.5t-60 130.5zM356 276q3 -141 30 -206.5t69 -65.5q114 0 114 453q-1 235 -30.5 323 t-102.5 88q-48 0 -80 -28v-564z" />
<glyph unicode="c" horiz-adv-x="690" d="M33 481q0 247 117.5 403t304.5 156q67 0 163 -26l21 -244l-16 -4q-163 240 -215 240q-17 0 -34.5 -25.5t-32.5 -71t-24.5 -119t-9.5 -161.5q0 -228 53.5 -336.5t145.5 -108.5q100 0 151 105l9 -4q-27 -144 -106.5 -230t-194.5 -86q-150 0 -241 143t-91 369z" />
<glyph unicode="d" horiz-adv-x="901" d="M41 434q0 172 47.5 307.5t144.5 217t230 81.5q35 0 69 -6v154q0 104 -16.5 169.5t-58.5 131.5v4l348 102v-1249q0 -119 16.5 -174.5t57.5 -112.5v-4l-342 -86v166h-2q-69 -166 -218 -166q-131 0 -203.5 124t-72.5 341zM324 539q0 -224 30 -312t103 -88q40 0 75 35v539 q0 152 -27 222.5t-69 70.5q-57 0 -84.5 -112.5t-27.5 -354.5z" />
<glyph unicode="e" horiz-adv-x="763" d="M33 494q0 232 107.5 389t265.5 157q99 0 174 -68t111.5 -169.5t37.5 -216.5l-424 6q4 -118 21.5 -200.5t48 -127.5t66.5 -64.5t83 -19.5q64 0 107.5 31.5t81.5 83.5l10 -4q-30 -141 -123 -231.5t-215 -90.5q-159 0 -255.5 149.5t-96.5 375.5zM303 627l170 4v84 q0 291 -80 291q-45 0 -67.5 -97.5t-22.5 -242.5v-39z" />
<glyph unicode="f" horiz-adv-x="540" d="M16 973v33h95v67q0 234 103.5 377t272.5 143q47 0 109 -10l20 -215l-14 -6q-6 8 -21 28.5t-23 30.5t-22 29t-23 29.5t-21.5 25t-21 22.5t-18 16.5t-17 12t-13.5 3.5q-41 0 -41 -330v-223h160v-33h-160v-674q0 -102 11 -165.5t36 -129.5v-4h-367v4q18 51 26.5 81.5 t16 86.5t7.5 127v674h-95z" />
<glyph unicode="g" horiz-adv-x="849" d="M8 -260q0 68 50 121t124 78q-155 51 -155 198q0 51 18.5 93t50 69t61 43t62.5 27q-78 49 -126 131.5t-48 179.5q0 150 101 255t237 105q120 0 219 -86l211 162l4 -2v-225h-6l-184 41q98 -110 98 -250q0 -151 -102 -254.5t-238 -103.5q-74 0 -141 34q-60 -27 -60 -73 q0 -37 34.5 -60.5t133.5 -27.5l121 -7q168 -6 253 -70t85 -183q0 -69 -32 -142q-30 -68 -86 -126.5t-147.5 -94t-203.5 -35.5q-143 0 -238.5 55t-95.5 148zM150 -227q0 -104 63.5 -149.5t161.5 -45.5q132 0 213 68q84 70 84 155q0 57 -52 82q-53 25 -188 31l-123 4 q-64 3 -106 14q-53 -61 -53 -159zM297 680q0 -175 19.5 -250.5t68.5 -75.5q47 0 68.5 77t21.5 249q0 173 -21 249.5t-71 76.5q-49 0 -67.5 -74.5t-18.5 -251.5z" />
<glyph unicode="h" horiz-adv-x="901" d="M12 1489v2l344 104v-725q31 65 92 117.5t150 52.5q99 0 161 -70.5t62 -193.5v-491q0 -98 8.5 -157.5t28.5 -123.5v-4h-342v4q20 65 28.5 123.5t8.5 155.5v483q0 102 -90 102q-68 0 -107 -59v-526q0 -94 8.5 -152.5t28.5 -126.5v-4h-344v4q14 57 19.5 80.5t11.5 79 t6 121.5v903q0 104 -16 170t-58 131z" />
<glyph unicode="i" horiz-adv-x="436" d="M14 934v6l344 111v-768q0 -63 6 -117.5t11.5 -81t19.5 -80.5v-4h-340v4q12 53 17.5 80.5t10.5 82t5 118.5v340q0 109 -15.5 177t-58.5 132zM43 1317q0 65 46 110.5t112 45.5q63 0 109 -46t46 -110t-46 -110t-109 -46q-66 0 -112 45.5t-46 110.5z" />
<glyph unicode="j" horiz-adv-x="434" d="M-45 -428q61 39 97 128.5t36 227.5v699q0 107 -16 174.5t-58 132.5v6l344 111l-6 -953q-3 -484 -393 -538zM43 1317q0 65 46 110.5t112 45.5q63 0 109 -46t46 -110t-46 -110t-109 -46q-66 0 -112 45.5t-46 110.5z" />
<glyph unicode="k" horiz-adv-x="878" d="M12 1489v4l344 102v-1296q0 -67 6 -124t12 -87.5t19 -83.5v-4h-342v4q1 4 6 26t6 27.5t5 25.5t5 29t4 28.5t4 34t2.5 35.5t2 42.5t0.5 46.5v889q0 104 -16 170t-58 131zM358 528l195 226q54 61 56 132v6q0 67 -44 109v5h283v-5q-40 -24 -76 -56t-59 -57.5t-62 -72.5 l-82 -96l191 -486q38 -97 61.5 -145t57.5 -84v-4h-314z" />
<glyph unicode="l" horiz-adv-x="432" d="M10 1489v4l344 102v-1319q0 -62 6 -114.5t12 -80.5t19 -77v-4h-340v4q1 3 5.5 22t5.5 23t4.5 21t4.5 24t4 23.5t4 27t3 28t2.5 32.5t1 34.5t0.5 39.5v909q0 103 -16.5 169t-59.5 132z" />
<glyph unicode="m" horiz-adv-x="1335" d="M12 938v2l338 111v-185l6 -2q26 66 87.5 121t152.5 55q80 0 136 -47.5t71 -128.5h2q26 66 87.5 121t151.5 55q96 0 153.5 -69t57.5 -189v-497q0 -95 8.5 -154t28.5 -127v-4h-342v4q20 65 28.5 123.5t8.5 155.5v489q0 96 -78 96q-65 0 -102 -63v-520q0 -98 8.5 -157.5 t28.5 -123.5v-4h-342v4q20 65 28.5 123.5t8.5 155.5v489q0 96 -80 96q-66 0 -103 -63v-522q0 -63 6 -117.5t11.5 -81t19.5 -80.5v-4h-342v4q14 57 19.5 80.5t11.5 79t6 121.5v340q-2 111 -17.5 179.5t-58.5 133.5z" />
<glyph unicode="n" horiz-adv-x="903" d="M12 938v2l340 111v-185h4q12 28 31.5 55.5t49 55.5t72.5 45.5t91 17.5q99 0 161 -70.5t62 -193.5v-473q0 -105 8.5 -168.5t28.5 -130.5v-4h-342v4q20 68 28.5 130t8.5 167v465q0 102 -90 102q-75 0 -107 -59v-508q0 -69 5 -125t11.5 -88t18.5 -84v-4h-342v4 q14 59 19.5 84.5t11.5 84.5t6 130v322q-2 111 -17.5 179.5t-58.5 133.5z" />
<glyph unicode="o" horiz-adv-x="833" d="M33 504q0 112 34 213.5t88.5 171t124 110.5t138.5 41t137.5 -41t123 -110.5t88.5 -171t34 -213.5q0 -113 -34 -214.5t-88.5 -170.5t-123 -109.5t-137.5 -40.5q-70 0 -139 40.5t-123.5 109.5t-88.5 170.5t-34 214.5zM309 504q0 -260 24 -380t85 -120q62 0 84 118t22 382 q0 262 -23 382t-83 120q-62 0 -85.5 -120.5t-23.5 -381.5z" />
<glyph unicode="p" horiz-adv-x="892" d="M10 938v2l340 111v-158l10 -2q74 149 213 149q133 0 205 -120.5t72 -335.5q0 -169 -46.5 -306.5t-141 -223t-222.5 -85.5q-34 0 -84 11v-158q0 -154 37 -279v-4h-344v4q14 54 19.5 79t11.5 80t6 122v801q0 109 -16.5 178t-59.5 135zM356 270q3 -138 30.5 -202t70.5 -64 q112 0 112 453q0 159 -13.5 248t-42 126t-77.5 37q-48 0 -80 -28v-570z" />
<glyph unicode="q" horiz-adv-x="882" d="M41 430q0 173 47 309t144 218.5t231 82.5q66 0 131.5 -19t110.5 -48l92 65h8v-1216q0 -150 33 -279v-4h-340v4q13 57 17.5 79.5t10.5 78.5t6 123v307q-68 -162 -215 -162q-130 0 -203 122t-73 339zM324 539q0 -224 30 -312t103 -88q40 0 75 35v539q0 153 -26 223t-68 70 q-59 0 -86.5 -112t-27.5 -355z" />
<glyph unicode="r" horiz-adv-x="655" d="M14 936v4l338 111v-234l2 -2q11 15 37 55.5t46 67t49 56.5q28 29 64 42q26 9 54 9q11 0 21 -1l-2 -282h-7q-30 19 -75.5 33t-85.5 14q-61 0 -97 -45v-481q0 -99 8 -157.5t29 -121.5v-4h-344v4q22 66 30.5 123.5t8.5 157.5v340q0 106 -16.5 175t-59.5 136z" />
<glyph unicode="s" horiz-adv-x="626" d="M41 274l14 5q169 -269 273 -269q32 0 51.5 26t19.5 79q0 50 -19.5 95.5t-50 82t-68 73t-75 75t-68 81t-50 99.5t-19.5 122q0 141 89.5 215t232.5 74q90 0 151 -18l21 -244l-15 -4q-31 49 -45.5 71t-37.5 55.5t-36 48t-31 31t-34 22t-33 5.5q-36 0 -59 -27t-23 -73t20 -88 t52.5 -75.5t71.5 -67t78.5 -71.5t72 -80t52.5 -100.5t20 -125.5q0 -145 -87.5 -230.5t-229.5 -85.5q-110 0 -220 35z" />
<glyph unicode="t" horiz-adv-x="563" d="M20 973v14l320 273h18v-254h156v-33h-156v-709q0 -82 23.5 -116.5t69.5 -34.5q45 0 77 32l7 -4q-25 -66 -85 -113.5t-149 -47.5q-99 0 -156 67t-57 209v717h-68z" />
<glyph unicode="u" horiz-adv-x="876" d="M23 999v7h321v-764q0 -103 74 -103q34 0 60 19.5t40 50.5v573q0 84 -11.5 128t-37.5 91v5h319v-680q0 -108 17 -161.5t57 -105.5v-4l-336 -86v181l-4 2q-11 -28 -29.5 -57t-47.5 -59t-71.5 -48.5t-90.5 -18.5q-92 0 -149.5 68.5t-57.5 193.5v547q0 57 -7.5 99.5t-17 65.5 t-28.5 56z" />
<glyph unicode="v" horiz-adv-x="688" d="M-20 1001v5h399v-5q-29 -50 -29 -132q0 -87 33 -210l70 -262l69 260q22 94 22 165q0 23 -2 44q-10 84 -46 135v5h184v-5q-34 -56 -59 -125t-62 -210l-184 -672h-86l-187 672q-44 158 -68 222t-54 113z" />
<glyph unicode="w" horiz-adv-x="1112" d="M-20 1001v5h403v-5q-31 -46 -31 -133t29 -190l70 -264l86 317q-32 128 -51 182t-44 88v5h387v-5q-31 -45 -33 -131v-10q0 -83 25 -182l62 -260l63 241q18 63 18 122q0 15 -1 31q-6 72 -22 118.5t-36 70.5v5h201v-5q-32 -54 -57 -122.5t-66 -216.5l-184 -668h-84l-162 670 l-184 -670h-84l-183 672q-41 146 -67 216t-55 119z" />
<glyph unicode="x" horiz-adv-x="776" d="M10 0v4q56 69 98 132.5t95 170.5l73 148l-104 256q-58 141 -83 193.5t-58 96.5v5h391v-5q-25 -38 -25 -93q0 -72 43 -173l43 -106l45 86q30 58 37 115q3 23 3 44q0 30 -6 54q-10 41 -32 73v5h211v-5q-44 -54 -76.5 -106t-97.5 -172l-67 -131l118 -297q54 -132 83 -188 t65 -103v-4h-393v4q25 44 25 93q0 8 -1 17q-5 58 -45 152l-61 150l-47 -99q-32 -65 -44 -128q-7 -40 -7 -74q1 -19 3 -35q6 -46 27 -76v-4h-213z" />
<glyph unicode="y" horiz-adv-x="688" d="M-14 1001v5h393v-5q-14 -28 -21 -75q-4 -27 -4 -64q0 -25 2 -56q5 -72 27 -147l74 -256l67 254q21 93 21 164q0 24 -3 45q-9 85 -44 135v5h184v-5q-34 -54 -58.5 -121.5t-64.5 -213.5l-178 -658q-28 -105 -62 -183t-66 -125.5t-73 -81t-74 -49.5t-79 -30v271q19 -4 45 -4 q13 0 28 1q43 3 85 10.5t81 33t58 65.5l-215 750q-44 156 -68 220.5t-55 114.5z" />
<glyph unicode="z" horiz-adv-x="704" d="M23 0v16l342 957l-66 -6q-15 -1 -31.5 -9t-34 -23.5t-32.5 -31t-35.5 -41.5t-34.5 -45t-38 -52t-38 -52l-14 4l55 289h557v-17l-342 -960l95 8q59 4 113.5 72.5t144.5 232.5l10 -4l-53 -338h-598z" />
<glyph unicode="&#xad;" d="M27 500v190h317v-190h-317z" />
<glyph unicode="&#x2000;" horiz-adv-x="797" />
<glyph unicode="&#x2001;" horiz-adv-x="1595" />
<glyph unicode="&#x2002;" horiz-adv-x="797" />
<glyph unicode="&#x2003;" horiz-adv-x="1595" />
<glyph unicode="&#x2004;" horiz-adv-x="531" />
<glyph unicode="&#x2005;" horiz-adv-x="398" />
<glyph unicode="&#x2006;" horiz-adv-x="265" />
<glyph unicode="&#x2007;" horiz-adv-x="265" />
<glyph unicode="&#x2008;" horiz-adv-x="199" />
<glyph unicode="&#x2009;" horiz-adv-x="319" />
<glyph unicode="&#x200a;" horiz-adv-x="88" />
<glyph unicode="&#x2010;" d="M27 500v190h317v-190h-317z" />
<glyph unicode="&#x2011;" d="M27 500v190h317v-190h-317z" />
<glyph unicode="&#x2012;" d="M27 500v190h317v-190h-317z" />
<glyph unicode="&#x2013;" horiz-adv-x="1079" d="M27 500v190h1024v-190h-1024z" />
<glyph unicode="&#x2014;" horiz-adv-x="2103" d="M27 500v190h2048v-190h-2048z" />
<glyph unicode="&#x2018;" horiz-adv-x="342" d="M41 1219q0 89 75 183t179 142l6 -12q-45 -35 -68.5 -81.5t-23.5 -86.5q0 -67 90 -170v-8l-172 -142q-32 26 -59 76t-27 99z" />
<glyph unicode="&#x2019;" horiz-adv-x="342" d="M41 1059q45 35 68.5 81.5t23.5 86.5q0 67 -90 170v8l172 141q33 -26 59.5 -75.5t26.5 -98.5q0 -89 -75 -183t-179 -142z" />
<glyph unicode="&#x201c;" horiz-adv-x="638" d="M39 1221q0 89 75 183t179 142l6 -12q-45 -35 -68.5 -81.5t-23.5 -86.5q0 -67 90 -170v-8l-172 -141q-33 26 -59.5 75.5t-26.5 98.5zM338 1221q0 89 75 183t179 142l6 -12q-45 -35 -68.5 -81.5t-23.5 -86.5q0 -67 90 -170v-8l-172 -141q-33 26 -59.5 75.5t-26.5 98.5z" />
<glyph unicode="&#x201d;" horiz-adv-x="641" d="M41 1059q45 35 68.5 81.5t23.5 86.5q0 67 -90 170v8l172 141q33 -26 59.5 -75.5t26.5 -98.5q0 -89 -75 -183t-179 -142zM340 1059q45 35 68.5 81.5t23.5 86.5q0 67 -90 170v8l172 141q33 -26 59.5 -75.5t26.5 -98.5q0 -89 -75 -183t-179 -142z" />
<glyph unicode="&#x202f;" horiz-adv-x="319" />
<glyph unicode="&#x205f;" horiz-adv-x="398" />
<glyph unicode="&#x25fc;" horiz-adv-x="1003" d="M0 0v1004h1004v-1004h-1004z" />
</font>
</defs>
</svg>
